<svg width="448" height="512" viewBox="0 0 448 512" fill="none" xmlns="http://www.w3.org/2000/svg">
<g clip-path="url(#clip0_6_12)">
<path d="M129.6 176H168.7C170.2 149 175.2 124.6 182.9 105.6C155.2 118.8 134.9 144.8 129.6 176ZM129.6 208C134.9 239.2 155.2 265.2 182.9 278.4C175.2 259.3 170.2 235 168.7 208H129.6ZM224 286.7C231.7 279.2 244.8 252.3 247.4 208H200.5C203.2 252.3 216.3 279.2 223.9 286.7H224ZM200.6 176H247.5C244.8 131.7 231.8 104.8 224.1 97.3C216.4 104.8 203.3 131.7 200.7 176H200.6ZM265.1 278.4C292.8 265.2 313.1 239.2 318.4 208H279.3C277.8 235 272.8 259.4 265.1 278.4ZM416 0H64C28.7 0 0 28.7 0 64V448C0 483.4 28.7 512 64 512H416C433.7 512 448 497.7 448 480V32C448 14.3 433.7 0 416 0ZM336 416H112C103.2 416 96 408.8 96 400C96 391.2 103.2 384 112 384H336C344.8 384 352 391.2 352 400C352 408.8 344.8 416 336 416ZM224 320C153.3 320 96 262.7 96 192C96 121.3 153.3 64 224 64C294.7 64 352 121.3 352 192C352 262.7 294.7 320 224 320ZM265.1 105.6C272.8 124.7 277.8 149 279.3 176H318.4C313.1 144.8 292.8 118.8 265.1 105.6Z" fill="white"/>
</g>
<defs>
<clipPath id="clip0_6_12">
<rect width="448" height="512" fill="white"/>
</clipPath>
</defs>
</svg>
