<svg width="416" height="512" viewBox="0 0 416 512" fill="none" xmlns="http://www.w3.org/2000/svg">
<g clip-path="url(#clip0_6_10)">
<path d="M272 96C298.5 96 320 74.5 320 48C320 21.5 298.5 0 272 0C245.5 0 224 21.5 224 48C224 74.5 245.5 96 272 96ZM113.7 317.5L98.9 352H32C14.3 352 0 366.3 0 384C0 401.7 14.3 416 32 416H109.5C128.8 416 146.1 404.6 153.6 386.9L162.4 366.4L151.7 360.1C134.4 349.9 121.6 334.7 113.7 317.5ZM384 224H340L313.9 170.7C301.4 145.1 278.4 126.5 252.1 119.8L181 98.7C152.7 91.9 123.2 98.1 100.2 115.8L60.5 146.2C46.5 157 43.8 177 54.6 191.1C65.4 205.2 85.4 207.8 99.5 197L139.2 166.6C146.9 160.7 156.6 158.6 164.5 160.5L179.2 164.9L141.7 252.3C129.1 281.8 140.4 316.3 168 332.6L253 382.8L225.5 470.5C220.2 487.4 229.6 505.3 246.5 510.6C249.7 511.6 252.9 512.1 256.1 512.1C269.7 512.1 282.3 503.3 286.6 489.6L318.2 388.5C324.1 367.7 315.3 345.4 296.6 334.1L235.4 298L266.7 219.7L287 261.1C295 277.4 311.9 288 330.1 288H384C401.7 288 416 273.7 416 256C416 238.3 401.7 224 384 224Z" fill="white"/>
</g>
<defs>
<clipPath id="clip0_6_10">
<rect width="416" height="512" fill="white"/>
</clipPath>
</defs>
</svg>
