<svg width="576" height="384" viewBox="0 0 576 384" fill="none" xmlns="http://www.w3.org/2000/svg">
<path d="M128 96H448V288H128V96ZM528 192C528 218.5 549.5 240 576 240V336C576 362.5 554.5 384 528 384H48C21.5 384 0 362.5 0 336V240C26.5 240 48 218.5 48 192C48 165.5 26.5 144 0 144V48C0 21.5 21.5 0 48 0H528C554.5 0 576 21.5 576 48V144C549.5 144 528 165.5 528 192ZM480 88C480 74.7 469.3 64 456 64H120C106.7 64 96 74.7 96 88V296C96 309.3 106.7 320 120 320H456C469.3 320 480 309.3 480 296V88Z" fill="white"/>
</svg>
